<?xml version="1.0" encoding="UTF-8"?>
<svg version="1.1" xmlns="http://www.w3.org/2000/svg" width="200" height="200">
<path d="M0 0 C66 0 132 0 200 0 C200 66 200 132 200 200 C134 200 68 200 0 200 C0 134 0 68 0 0 Z " fill="#FDFDFD" transform="translate(0,0)"/>
<path d="M0 0 C1.37868281 1.62935241 2.71274093 3.29749607 4 5 C4.66 5.33 5.32 5.66 6 6 C6 6.66 6 7.32 6 8 C6.99 8.33 7.98 8.66 9 9 C9 9.66 9 10.32 9 11 C9.99 11.33 10.98 11.66 12 12 C12 12.99 12 13.98 12 15 C12.66 15 13.32 15 14 15 C16.125 16.875 16.125 16.875 18 19 C18 19.66 18 20.32 18 21 C18.66 21 19.32 21 20 21 C20 55.32 20 89.64 20 125 C43.43 125 66.86 125 91 125 C87.68317964 119.92592028 87.68317964 119.92592028 84 119 C83.53360107 118.16823242 83.06720215 117.33646484 82.58666992 116.47949219 C78.31491001 112.3847311 73.3040346 113.2940092 67.61328125 113.328125 C66.40053024 113.31537537 65.18777924 113.30262573 63.9382782 113.28948975 C60.06278194 113.25312076 56.18815219 113.25048005 52.3125 113.25 C48.4264593 113.2284282 44.54055176 113.20002823 40.65458679 113.16766357 C38.23520829 113.14982094 35.81575992 113.13960889 33.39631653 113.13751221 C32.30816147 113.13370544 31.22000641 113.12989868 30.09887695 113.12597656 C29.13609329 113.12551331 28.17330963 113.12505005 27.18135071 113.12457275 C25 113 25 113 24 112 C24 109.69 24 107.38 24 105 C43.14 105 62.28 105 82 105 C82 105.66 82 106.32 82 107 C83.485 107.495 83.485 107.495 85 108 C85 108.66 85 109.32 85 110 C86.32 110 87.64 110 89 110 C90.03789581 111.64333504 91.03567924 113.31243867 92 115 C93.32467746 115.6837045 94.65863633 116.34964186 96 117 C97.37868281 118.62935241 98.71274093 120.29749607 100 122 C100.598125 122.45375 101.19625 122.9075 101.8125 123.375 C103 125 103 125 102 132 C72.63 132 43.26 132 13 132 C13 96.36 13 60.72 13 24 C11.68 23.34 10.36 22.68 9 22 C6.61493584 19.96827868 6.02322718 19.06968154 5 16 C4.34 15.67 3.68 15.34 3 15 C3 14.34 3 13.68 3 13 C2.34 13 1.68 13 1 13 C0.67 43.36 0.34 73.72 0 105 C2.97 105 5.94 105 9 105 C10.125 110.75 10.125 110.75 9 113 C3.72 113 -1.56 113 -7 113 C-7.09255565 98.70964894 -7.16369175 84.41936882 -7.20724869 70.12877941 C-7.22815061 63.49354171 -7.25651627 56.8585086 -7.30175781 50.22338867 C-7.34512189 43.8237894 -7.36911746 37.4243873 -7.37950897 31.02465248 C-7.38691727 28.57931729 -7.40138332 26.13399326 -7.42292023 23.68874168 C-7.45182794 20.27166539 -7.45596119 16.85541071 -7.45410156 13.43823242 C-7.46848267 12.42043701 -7.48286377 11.4026416 -7.49768066 10.35400391 C-7.49218201 9.42432297 -7.48668335 8.49464203 -7.48101807 7.53678894 C-7.48470524 6.72837649 -7.48839241 5.91996405 -7.49219131 5.08705425 C-7 3 -7 3 -5.15743637 1.21645069 C-3 0 -3 0 0 0 Z " fill="#6CB6F9" transform="translate(49,0)"/>
<path d="M0 0 C1.67542976 0.28604898 3.34385343 0.61781233 5 1 C5 1.66 5 2.32 5 3 C5.639375 3.309375 6.27875 3.61875 6.9375 3.9375 C9 5 9 5 10 6 C10.09507821 8.58639038 10.12556376 11.1459856 10.11352539 13.73266602 C10.11367142 14.5423584 10.11381744 15.35205078 10.1139679 16.1862793 C10.11326854 18.87551508 10.1054751 21.56468249 10.09765625 24.25390625 C10.09579215 26.11335716 10.09436821 27.97280856 10.09336853 29.83226013 C10.08954271 34.73629096 10.07971188 39.64029236 10.06866455 44.54431152 C10.05845181 49.54451092 10.05387121 54.54471506 10.04882812 59.54492188 C10.03808967 69.36329421 10.02101248 79.18164466 10 89 C9.34 88.34 8.68 87.68 8 87 C5.67182036 86.63239269 3.3381615 86.29758419 1 86 C-1.00608231 83.99391769 -0.19535366 79.94320568 -0.22119141 77.19140625 C-0.2326973 76.37356659 -0.24420319 75.55572693 -0.25605774 74.71310425 C-0.29288937 71.99627502 -0.3224446 69.27942209 -0.3515625 66.5625 C-0.37466267 64.68302055 -0.39805284 62.80354464 -0.42172241 60.92407227 C-0.47024652 56.9796852 -0.51516965 53.03527731 -0.55761719 49.09082031 C-0.61245452 44.02279272 -0.67627355 38.95492531 -0.74279213 33.88703918 C-0.79275367 30.00447498 -0.83792676 26.12186651 -0.88163376 22.23922729 C-0.90326914 20.37000743 -0.92642665 18.50080456 -0.9510994 16.63162231 C-0.98481048 14.02397258 -1.01208509 11.41633479 -1.03759766 8.80859375 C-1.04897263 8.02829803 -1.0603476 7.24800232 -1.07206726 6.44406128 C-1.086433 4.62927205 -1.04890205 2.81418712 -1 1 C-0.67 0.67 -0.34 0.34 0 0 Z " fill="#FCFEFE" transform="translate(51,18)"/>
<path d="M0 0 C29.205 0.495 29.205 0.495 59 1 C59.495 2.485 59.495 2.485 60 4 C60.99 4.33 61.98 4.66 63 5 C63 5.66 63 6.32 63 7 C63.66 7 64.32 7 65 7 C65.495 8.98 65.495 8.98 66 11 C62.56942091 12.04644 59.43123127 12.12079519 55.85449219 12.11352539 C54.61350769 12.11344986 53.37252319 12.11337433 52.09393311 12.11329651 C50.74491333 12.10819031 49.39589396 12.10297432 48.046875 12.09765625 C46.66253714 12.09579024 45.27819862 12.0943672 43.89385986 12.09336853 C40.25738692 12.08955773 36.62095418 12.07973975 32.98449707 12.06866455 C29.27092024 12.0584195 25.5573369 12.05386429 21.84375 12.04882812 C14.56247959 12.03811615 7.28125056 12.02053103 0 12 C0 8.04 0 4.08 0 0 Z " fill="#FBFEFE" transform="translate(70,112)"/>
<path d="M0 0 C19.14 0 38.28 0 58 0 C58 0.66 58 1.32 58 2 C58.99 2.33 59.98 2.66 61 3 C61 3.66 61 4.32 61 5 C62.32 5 63.64 5 65 5 C66.03789581 6.64333504 67.03567924 8.31243867 68 10 C69.96672915 11.1500831 69.96672915 11.1500831 72 12 C73.75 13.5 73.75 13.5 75 15 C75 15.66 75 16.32 75 17 C73.68 17 72.36 17 71 17 C70.34 18.32 69.68 19.64 69 21 C44.91 21 20.82 21 -4 21 C-4 20.67 -4 20.34 -4 20 C19.43 20 42.86 20 67 20 C63.68317964 14.92592028 63.68317964 14.92592028 60 14 C59.53360107 13.16823242 59.06720215 12.33646484 58.58666992 11.47949219 C54.31491001 7.3847311 49.3040346 8.2940092 43.61328125 8.328125 C42.40053024 8.31537537 41.18777924 8.30262573 39.9382782 8.28948975 C36.06278194 8.25312076 32.18815219 8.25048005 28.3125 8.25 C24.4264593 8.2284282 20.54055176 8.20002823 16.65458679 8.16766357 C14.23520829 8.14982094 11.81575992 8.13960889 9.39631653 8.13751221 C8.30816147 8.13370544 7.22000641 8.12989868 6.09887695 8.12597656 C5.13609329 8.12551331 4.17330963 8.12505005 3.18135071 8.12457275 C1 8 1 8 0 7 C0 4.69 0 2.38 0 0 Z " fill="#83BCF0" transform="translate(73,105)"/>
<path d="M0 0 C1.21236328 0.01353516 1.21236328 0.01353516 2.44921875 0.02734375 C3.37154297 0.04474609 3.37154297 0.04474609 4.3125 0.0625 C4.3125 0.7225 4.3125 1.3825 4.3125 2.0625 C5.5190625 2.495625 5.5190625 2.495625 6.75 2.9375 C9.3125 4.0625 9.3125 4.0625 10.3125 6.0625 C10.46129681 8.37171203 10.53384584 10.6861764 10.5625 13 C10.58828125 14.24652344 10.6140625 15.49304688 10.640625 16.77734375 C10.3125 20.0625 10.3125 20.0625 8.984375 22.00390625 C7.3125 23.0625 7.3125 23.0625 4.3125 23.0625 C4.3125 23.7225 4.3125 24.3825 4.3125 25.0625 C-0.16004497 26.55334832 -4.21495503 26.55334832 -8.6875 25.0625 C-8.6875 24.4025 -8.6875 23.7425 -8.6875 23.0625 C-9.3475 23.0625 -10.0075 23.0625 -10.6875 23.0625 C-10.6875 22.0725 -10.6875 21.0825 -10.6875 20.0625 C-11.6775 19.7325 -12.6675 19.4025 -13.6875 19.0625 C-14.60132452 7.50431203 -14.60132452 7.50431203 -12.45703125 4.12109375 C-8.55604971 0.89435593 -4.92312545 -0.07134964 0 0 Z " fill="#374A5D" transform="translate(38.6875,146.9375)"/>
<path d="M0 0 C0 0.66 0 1.32 0 2 C0.66 2 1.32 2 2 2 C3.30459914 4.60919828 3.1326594 6.58942615 3.125 9.5 C3.12886719 10.96953125 3.12886719 10.96953125 3.1328125 12.46875 C3 15 3 15 2 17 C1.34 17 0.68 17 0 17 C0 17.99 0 18.98 0 20 C-0.99 20 -1.98 20 -3 20 C-3 20.66 -3 21.32 -3 22 C-6.75765708 23.25255236 -10.11451081 23.76715326 -14 23 C-17.87433153 20.6591037 -20.55767172 18.32698484 -22 14 C-22.36413672 8.44691505 -22.27329419 4.74063297 -19 0 C-13.54908963 -3.52705965 -5.60257466 -2.89165144 0 0 Z " fill="#3D4F62" transform="translate(103,150)"/>
<path d="M0 0 C0.99 0.33 1.98 0.66 3 1 C3 1.66 3 2.32 3 3 C3.99 3.33 4.98 3.66 6 4 C6 4.66 6 5.32 6 6 C4.68 6.33 3.36 6.66 2 7 C2.33 34.72 2.66 62.44 3 91 C5.31 91.33 7.62 91.66 10 92 C10.33 92.33 10.66 92.66 11 93 C11.33 66.27 11.66 39.54 12 12 C12.33 12 12.66 12 13 12 C13 47.64 13 83.28 13 120 C42.37 120 71.74 120 102 120 C102 117.36 102 114.72 102 112 C103.485 112.495 103.485 112.495 105 113 C105.86591463 115.83390242 106.26738049 117.38768832 105.06192017 120.14823914 C101.85978792 123.02399702 98.40572708 122.48610116 94.32177734 122.37817383 C93.43537064 122.37061066 92.54896393 122.36304749 91.63569641 122.35525513 C88.70184586 122.32525011 85.76932827 122.2664421 82.8359375 122.20703125 C80.80239943 122.17967368 78.76883874 122.15395326 76.73526001 122.12980652 C72.47296311 122.07517289 68.21114998 122.00751374 63.94921875 121.92944336 C58.47346395 121.8292119 52.99768959 121.75069907 47.52147484 121.6805315 C42.3136881 121.61309085 37.10606398 121.53576352 31.8984375 121.45703125 C30.898018 121.44256266 29.8975985 121.42809406 28.86686325 121.41318703 C26.05092806 121.3704882 23.23520929 121.32086223 20.41943359 121.26879883 C19.1555204 121.25073936 19.1555204 121.25073936 17.86607361 121.23231506 C12.11491741 121.11491741 12.11491741 121.11491741 11 120 C10.91348389 118.58429877 10.89295096 117.164405 10.90234375 115.74609375 C10.90556641 114.89208984 10.90878906 114.03808594 10.91210938 113.15820312 C10.92048828 112.26037109 10.92886719 111.36253906 10.9375 110.4375 C10.94201172 109.53580078 10.94652344 108.63410156 10.95117188 107.70507812 C10.96299775 105.46998686 10.9794778 103.23502563 11 101 C10.34 101 9.68 101 9 101 C9 98.36 9 95.72 9 93 C6.03 93 3.06 93 0 93 C0 62.31 0 31.62 0 0 Z " fill="#EEFDFE" transform="translate(49,12)"/>
<path d="M0 0 C4.95 0 9.9 0 15 0 C15.33 0.99 15.66 1.98 16 3 C16.66 3 17.32 3 18 3 C20.81576526 7.3925938 21.63576401 10.79820526 20.8125 15.875 C19.53479772 19.21668289 17.64801697 20.55162394 14.54296875 22.203125 C9.69235049 23.72313441 5.03777529 23.28623723 0 23 C0 15.41 0 7.82 0 0 Z " fill="#445669" transform="translate(139,149)"/>
<path d="M0 0 C2.97 0 5.94 0 9 0 C9 0.66 9 1.32 9 2 C9.99 2 10.98 2 12 2 C13.6875 3.3125 13.6875 3.3125 15 5 C15 5.99 15 6.98 15 8 C11.25 9.125 11.25 9.125 9 8 C9 7.34 9 6.68 9 6 C6.03 6 3.06 6 0 6 C0 10.62 0 15.24 0 20 C2.97 20 5.94 20 9 20 C9.33 18.68 9.66 17.36 10 16 C8.35 16 6.7 16 5 16 C5 14.68 5 13.36 5 12 C8.63 12 12.26 12 16 12 C15.6153821 17.67311399 15.17694415 20.82305585 11 25 C8.59454362 26.20272819 7.05003047 26.10071472 4.375 26.0625 C3.14910156 26.04896484 3.14910156 26.04896484 1.8984375 26.03515625 C1.27195312 26.02355469 0.64546875 26.01195312 0 26 C0 25.34 0 24.68 0 24 C-0.8971875 23.9071875 -0.8971875 23.9071875 -1.8125 23.8125 C-4 23 -4 23 -5.75 21.0625 C-7.90835704 15.77452525 -7.55008958 10.45039905 -6.3125 4.9375 C-5 3 -5 3 -2.375 2.1875 C-1.59125 2.125625 -0.8075 2.06375 0 2 C0 1.34 0 0.68 0 0 Z " fill="#435569" transform="translate(61,147)"/>
<path d="M0 0 C6.97674419 1.1627907 6.97674419 1.1627907 10 5 C10 5.66 10 6.32 10 7 C10.99 7.33 11.98 7.66 13 8 C13.3721042 9.32303717 13.70630173 10.65737935 14 12 C14.66 12.33 15.32 12.66 16 13 C16 13.66 16 14.32 16 15 C16.66 15 17.32 15 18 15 C18 10.38 18 5.76 18 1 C19.32 1 20.64 1 22 1 C22 8.26 22 15.52 22 23 C17 23 17 23 14.875 21.3125 C13 19 13 19 11.4375 16.375 C10.07382261 13.74256396 10.07382261 13.74256396 7 12 C7 11.34 7 10.68 7 10 C6.34 10 5.68 10 5 10 C5 14.62 5 19.24 5 24 C3.35 24 1.7 24 0 24 C0 16.08 0 8.16 0 0 Z " fill="#182E47" transform="translate(111,148)"/>
<path d="M0 0 C2.97 0 5.94 0 9 0 C9.33 1.65 9.66 3.3 10 5 C7.53721199 6.231394 5.7204945 6.07159196 3 6 C2.67 6.99 2.34 7.98 2 9 C3.32 9 4.64 9 6 9 C6 9.66 6 10.32 6 11 C6.804375 11.12375 7.60875 11.2475 8.4375 11.375 C9.283125 11.58125 10.12875 11.7875 11 12 C12.40457737 14.80915474 12.24895157 16.88810534 12 20 C11 22.3125 11 22.3125 9 24 C3.93541185 25.14361668 0.70765495 25.50094169 -4 23 C-3.67 21.35 -3.34 19.7 -3 18 C1.455 18.99 1.455 18.99 6 20 C6 18.35 6 16.7 6 15 C3.03 14.505 3.03 14.505 0 14 C0 13.34 0 12.68 0 12 C-0.99 12 -1.98 12 -3 12 C-3 9.03 -3 6.06 -3 3 C-2.01 2.67 -1.02 2.34 0 2 C0 1.34 0 0.68 0 0 Z " fill="#344559" transform="translate(178,147)"/>
<path d="M0 0 C18.81 0 37.62 0 57 0 C57.495 1.98 57.495 1.98 58 4 C38.86 4 19.72 4 0 4 C0 2.68 0 1.36 0 0 Z " fill="#63B4FD" transform="translate(73,107)"/>
<path d="M0 0 C0.33 0 0.66 0 1 0 C1 35.64 1 71.28 1 108 C30.37 108 59.74 108 90 108 C90 105.36 90 102.72 90 100 C91.485 100.495 91.485 100.495 93 101 C93.86589724 103.83384551 94.26675863 105.3881835 93.06291199 108.14923096 C89.855589 111.02672362 86.39359376 110.47769448 82.3059082 110.36230469 C81.4035377 110.35287464 80.5011672 110.3434446 79.57145214 110.33372879 C76.64728227 110.29858212 73.72445033 110.23574056 70.80078125 110.171875 C68.996892 110.14612326 67.19297592 110.12218515 65.38903809 110.10009766 C58.69651124 110.00539944 52.00451905 109.87555597 45.3125 109.75 C30.359375 109.5025 15.40625 109.255 0 109 C0 73.03 0 37.06 0 0 Z " fill="#BDDCF7" transform="translate(61,24)"/>
<path d="M0 0 C0.33 0 0.66 0 1 0 C1.33 27.72 1.66 55.44 2 84 C2.66 84 3.32 84 4 84 C4.33 85.98 4.66 87.96 5 90 C3.68 89.67 2.36 89.34 1 89 C1 92.96 1 96.92 1 101 C22.78 100.67 44.56 100.34 67 100 C66.67 98.68 66.34 97.36 66 96 C66.66 96.33 67.32 96.66 68 97 C68 97.66 68 98.32 68 99 C69.485 99.495 69.485 99.495 71 100 C71 100.66 71 101.32 71 102 C47.57 102 24.14 102 0 102 C0 68.34 0 34.68 0 0 Z " fill="#CCEAFE" transform="translate(69,23)"/>
<path d="M0 0 C1.98 0 3.96 0 6 0 C6 6.6 6 13.2 6 20 C8.31 20 10.62 20 13 20 C13 21.65 13 23.3 13 25 C8.71 25 4.42 25 0 25 C0 16.75 0 8.5 0 0 Z " fill="#3B4F63" transform="translate(10,147)"/>
<path d="M0 0 C0.99 0.66 1.98 1.32 3 2 C3.29296875 4.1640625 3.29296875 4.1640625 3.1875 6.625 C3.16042969 7.44226563 3.13335937 8.25953125 3.10546875 9.1015625 C3.07066406 9.72804687 3.03585938 10.35453125 3 11 C2.01 11.33 1.02 11.66 0 12 C0 12.66 0 13.32 0 14 C-2.64 14 -5.28 14 -8 14 C-8.33 13.01 -8.66 12.02 -9 11 C-9.66 11 -10.32 11 -11 11 C-11.48076923 4.75 -11.48076923 4.75 -9.4375 1.5625 C-6.11598609 -0.56667558 -3.87338754 -0.42255137 0 0 Z " fill="#EAEFF2" transform="translate(97,153)"/>
<path d="M0 0 C4.95 0 9.9 0 15 0 C15.33 0.99 15.66 1.98 16 3 C16.66 3 17.32 3 18 3 C19.4783226 5.95664519 19.06032783 8.74229737 19 12 C18.34 12 17.68 12 17 12 C17 12.66 17 13.32 17 14 C16.34 14 15.68 14 15 14 C14.814375 12.2984375 14.814375 12.2984375 14.625 10.5625 C14.41875 9.386875 14.2125 8.21125 14 7 C13.34 6.67 12.68 6.34 12 6 C12 5.34 12 4.68 12 4 C9.36 3.67 6.72 3.34 4 3 C4.02320313 4.03640625 4.04640625 5.0728125 4.0703125 6.140625 C4.08907667 7.51040944 4.10727618 8.8802017 4.125 10.25 C4.15013672 11.27287109 4.15013672 11.27287109 4.17578125 12.31640625 C4.21213482 16.0608235 4.07944349 18.82352727 2 22 C1.34 22 0.68 22 0 22 C0 14.74 0 7.48 0 0 Z " fill="#192E45" transform="translate(139,149)"/>
<path d="M0 0 C0.91007812 0.00902344 1.82015625 0.01804688 2.7578125 0.02734375 C3.45648438 0.03894531 4.15515625 0.05054688 4.875 0.0625 C4.215 0.7225 3.555 1.3825 2.875 2.0625 C1.885 2.0625 0.895 2.0625 -0.125 2.0625 C-0.558125 2.990625 -0.558125 2.990625 -1 3.9375 C-2.125 6.0625 -2.125 6.0625 -4.125 8.0625 C-4.52547444 10.38525177 -4.8647104 12.71989357 -5.125 15.0625 C-4.465 15.0625 -3.805 15.0625 -3.125 15.0625 C-1.5 16.4375 -1.5 16.4375 -0.125 18.0625 C-0.125 18.7225 -0.125 19.3825 -0.125 20.0625 C1.855 20.0625 3.835 20.0625 5.875 20.0625 C6.205 20.7225 6.535 21.3825 6.875 22.0625 C-3.04650989 22.68802427 -3.04650989 22.68802427 -7.25 20.25 C-10.22932444 16.77412148 -10.4012843 13.62434875 -10.3515625 9.1328125 C-10.00833493 5.99642263 -8.79719794 3.69942751 -7.125 1.0625 C-4.60024538 -0.19987731 -2.81299534 -0.03606404 0 0 Z " fill="#2F4258" transform="translate(91.125,148.9375)"/>
<path d="M0 0 C1.9375 1.0625 1.9375 1.0625 3 3 C3.38991688 7.36706908 3.46324069 9.30513897 1 13 C-0.9453125 13.29296875 -0.9453125 13.29296875 -3.125 13.1875 C-4.40375 13.125625 -5.6825 13.06375 -7 13 C-7 12.34 -7 11.68 -7 11 C-7.99 11 -8.98 11 -10 11 C-10 7.7 -10 4.4 -10 1 C-6.44646071 -0.1845131 -3.72986522 -0.26641894 0 0 Z " fill="#F3F7F8" transform="translate(41,154)"/>
<path d="M0 0 C1.98 0 3.96 0 6 0 C6 8.25 6 16.5 6 25 C4.02 25 2.04 25 0 25 C0 16.75 0 8.5 0 0 Z " fill="#394C5E" transform="translate(163,147)"/>
<path d="M0 0 C0.33 0.99 0.66 1.98 1 3 C0.02594208 3.45183655 -0.94811584 3.9036731 -1.95169067 4.36920166 C-4.07613032 5.80381861 -4.87501929 6.55083437 -5.56942368 9.04644012 C-5.78113992 11.74295505 -5.80711684 14.38795653 -5.77294922 17.09277344 C-5.78357895 18.11748245 -5.79420868 19.14219147 -5.80516052 20.19795227 C-5.83326955 23.58558911 -5.81913619 26.97167432 -5.8046875 30.359375 C-5.81593415 32.7077979 -5.82981326 35.05620955 -5.84622192 37.40460205 C-5.88232807 43.58609537 -5.88262468 49.76709479 -5.87554932 55.94866943 C-5.87463783 62.25623465 -5.90747469 68.56361335 -5.9375 74.87109375 C-5.99142644 87.24744754 -6.00753627 99.62354174 -6 112 C-1.05 112 3.9 112 9 112 C9 112.33 9 112.66 9 113 C3.72 113 -1.56 113 -7 113 C-7.09255565 98.70964894 -7.16369175 84.41936882 -7.20724869 70.12877941 C-7.22815061 63.49354171 -7.25651627 56.8585086 -7.30175781 50.22338867 C-7.34512189 43.8237894 -7.36911746 37.4243873 -7.37950897 31.02465248 C-7.38691727 28.57931729 -7.40138332 26.13399326 -7.42292023 23.68874168 C-7.45182794 20.27166539 -7.45596119 16.85541071 -7.45410156 13.43823242 C-7.46848267 12.42043701 -7.48286377 11.4026416 -7.49768066 10.35400391 C-7.49218201 9.42432297 -7.48668335 8.49464203 -7.48101807 7.53678894 C-7.48470524 6.72837649 -7.48839241 5.91996405 -7.49219131 5.08705425 C-7 3 -7 3 -5.15743637 1.21645069 C-3 0 -3 0 0 0 Z " fill="#87C1F7" transform="translate(49,0)"/>
<path d="M0 0 C0 0.66 0 1.32 0 2 C1.98 2 3.96 2 6 2 C5.67 2.99 5.34 3.98 5 5 C5.66 5.33 6.32 5.66 7 6 C3.37 6 -0.26 6 -4 6 C-4 7.32 -4 8.64 -4 10 C-2.35 10 -0.7 10 1 10 C0.67 11.32 0.34 12.64 0 14 C-2.97 14 -5.94 14 -9 14 C-9.89214652 11.32356043 -10.13540211 9.74615622 -10.125 7 C-10.12757812 6.319375 -10.13015625 5.63875 -10.1328125 4.9375 C-10 3 -10 3 -9 0 C-5.52176885 -1.15941038 -3.54104422 -0.70820884 0 0 Z " fill="#D7DEE4" transform="translate(70,153)"/>
<path d="M0 0 C1.32 0 2.64 0 4 0 C4 7.26 4 14.52 4 22 C-1 22 -1 22 -3.125 20.3125 C-6.32689099 16.36350111 -8.27465166 13.07743841 -9 8 C-5.75728494 8.5590888 -4.06942576 9.4132178 -2 12 C-2 12.66 -2 13.32 -2 14 C-1.34 14 -0.68 14 0 14 C0 9.38 0 4.76 0 0 Z " fill="#1C3249" transform="translate(129,149)"/>
<path d="M0 0 C3.63 0 7.26 0 11 0 C10.25 7.625 10.25 7.625 8 11 C5.11788698 11.96070434 3.30149956 12.10581883 0.3125 12.0625 C-0.89986328 12.04896484 -0.89986328 12.04896484 -2.13671875 12.03515625 C-3.05904297 12.01775391 -3.05904297 12.01775391 -4 12 C-4.33 10.68 -4.66 9.36 -5 8 C-2.03 8 0.94 8 4 8 C4.33 6.68 4.66 5.36 5 4 C3.35 4 1.7 4 0 4 C0 2.68 0 1.36 0 0 Z " fill="#36485B" transform="translate(66,159)"/>
<path d="M0 0 C1.21236328 0.01353516 1.21236328 0.01353516 2.44921875 0.02734375 C3.37154297 0.04474609 3.37154297 0.04474609 4.3125 0.0625 C4.3125 0.7225 4.3125 1.3825 4.3125 2.0625 C5.116875 2.330625 5.92125 2.59875 6.75 2.875 C8.0184375 3.4628125 8.0184375 3.4628125 9.3125 4.0625 C9.6425 5.0525 9.9725 6.0425 10.3125 7.0625 C8.9925 7.3925 7.6725 7.7225 6.3125 8.0625 C6.3125 11.0325 6.3125 14.0025 6.3125 17.0625 C5.9825 17.0625 5.6525 17.0625 5.3125 17.0625 C4.9825 14.0925 4.6525 11.1225 4.3125 8.0625 C0.6825 8.0625 -2.9475 8.0625 -6.6875 8.0625 C-7.0175 5.7525 -7.3475 3.4425 -7.6875 1.0625 C-4.80538698 0.10179566 -2.98899956 -0.04331883 0 0 Z " fill="#3D5063" transform="translate(38.6875,146.9375)"/>
<path d="M0 0 C0.99 0.33 1.98 0.66 3 1 C3 1.66 3 2.32 3 3 C3.99 3.33 4.98 3.66 6 4 C6 4.66 6 5.32 6 6 C4.68 6.33 3.36 6.66 2 7 C2 35.38 2 63.76 2 93 C1.34 93 0.68 93 0 93 C0 62.31 0 31.62 0 0 Z " fill="#DBFEFF" transform="translate(49,12)"/>
<path d="M0 0 C0.66 0 1.32 0 2 0 C2 2.31 2 4.62 2 7 C2.99 7 3.98 7 5 7 C5 7.66 5 8.32 5 9 C7.97 9.495 7.97 9.495 11 10 C11 11.65 11 13.3 11 15 C5.375 15.25 5.375 15.25 2 13 C2 14.98 2 16.96 2 19 C1.01 19 0.02 19 -1 19 C-3.42857143 10.57142857 -3.42857143 10.57142857 -2 6 C-1.34 6 -0.68 6 0 6 C0 4.02 0 2.04 0 0 Z " fill="#E6EAED" transform="translate(173,152)"/>
<path d="M0 0 C0.99 0.33 1.98 0.66 3 1 C3.91892116 4.67568464 3.95904856 6.16380575 3 10 C-26.04 10 -55.08 10 -85 10 C-84.67 9.34 -84.34 8.68 -84 8 C-55.95 8.33 -27.9 8.66 1 9 C0.505 4.545 0.505 4.545 0 0 Z " fill="#77B4EB" transform="translate(148,122)"/>
<path d="M0 0 C6 1 6 1 9 3 C9.46036193 6.4527145 9.14500118 8.62944142 7.875 11.875 C7.25625 12.57625 6.6375 13.2775 6 14 C4.02 14 2.04 14 0 14 C0 9.38 0 4.76 0 0 Z " fill="#E9EEF2" transform="translate(145,153)"/>
<path d="M0 0 C2.0625 0.4375 2.0625 0.4375 4 1 C4.0810206 3.10353495 4.13919907 5.20795952 4.1875 7.3125 C4.22230469 8.48425781 4.25710937 9.65601563 4.29296875 10.86328125 C4 14 4 14 2.67578125 15.91796875 C1 17 1 17 -2 17 C-2 17.66 -2 18.32 -2 19 C-6.47254497 20.49084832 -10.52745503 20.49084832 -15 19 C-14.67 18.34 -14.34 17.68 -14 17 C-10.37 17.33 -6.74 17.66 -3 18 C-3.33 16.68 -3.66 15.36 -4 14 C-3.34 13.01 -2.68 12.02 -2 11 C-1.34 11 -0.68 11 0 11 C-0.08378906 10.28972656 -0.16757812 9.57945312 -0.25390625 8.84765625 C-0.35574219 7.92855469 -0.45757812 7.00945312 -0.5625 6.0625 C-0.66691406 5.14597656 -0.77132812 4.22945312 -0.87890625 3.28515625 C-0.91886719 2.53105469 -0.95882812 1.77695313 -1 1 C-0.67 0.67 -0.34 0.34 0 0 Z " fill="#4C5D70" transform="translate(45,153)"/>
<path d="M0 0 C0.99 0.33 1.98 0.66 3 1 C3 1.99 3 2.98 3 4 C3.66 4 4.32 4 5 4 C9.89795918 8.89795918 9.89795918 8.89795918 10.3125 13.375 C10.1578125 14.674375 10.1578125 14.674375 10 16 C5.39024 14.68292571 1.81142658 12.92504831 -2 10 C-2.33 9.01 -2.66 8.02 -3 7 C-1.68 7.33 -0.36 7.66 1 8 C0.835 7.4225 0.67 6.845 0.5 6.25 C0 4 0 4 0 0 Z " fill="#70B9F9" transform="translate(58,11)"/>
<path d="M0 0 C0.66 0 1.32 0 2 0 C2 2.31 2 4.62 2 7 C2.66 7 3.32 7 4 7 C4 6.01 4 5.02 4 4 C4.66 4 5.32 4 6 4 C5.67 5.65 5.34 7.3 5 9 C4.34 9 3.68 9 3 9 C3 9.99 3 10.98 3 12 C2.01 12 1.02 12 0 12 C0 12.66 0 13.32 0 14 C-2.75078884 14.91692961 -4.35948913 15.10886083 -7.1875 15.0625 C-9.0746875 15.0315625 -9.0746875 15.0315625 -11 15 C-11.33 14.34 -11.66 13.68 -12 13 C-7.545 12.505 -7.545 12.505 -3 12 C-5.97 11.505 -5.97 11.505 -9 11 C-9 10.34 -9 9.68 -9 9 C-7.02 9 -5.04 9 -3 9 C-3 8.34 -3 7.68 -3 7 C-2.34 6.67 -1.68 6.34 -1 6 C-0.34227572 2.97065509 -0.34227572 2.97065509 0 0 Z " fill="#485A6C" transform="translate(100,158)"/>
<path d="M0 0 C2.31 0 4.62 0 7 0 C7 8.25 7 16.5 7 25 C4.69 25.33 2.38 25.66 0 26 C0 25.01 0 24.02 0 23 C1.65 23.33 3.3 23.66 5 24 C5 16.74 5 9.48 5 2 C3.68 2 2.36 2 1 2 C1 6.62 1 11.24 1 16 C0.34 15.67 -0.32 15.34 -1 15 C-0.67 10.05 -0.34 5.1 0 0 Z " fill="#9BA7B3" transform="translate(128,147)"/>
<path d="M0 0 C0.99 0.495 0.99 0.495 2 1 C2 1.66 2 2.32 2 3 C2.99 3.33 3.98 3.66 5 4 C5 4.66 5 5.32 5 6 C-18.1 6 -41.2 6 -65 6 C-65 5.67 -65 5.34 -65 5 C-43.22 4.67 -21.44 4.34 1 4 C0.505 2.02 0.505 2.02 0 0 Z " fill="#D5F5FF" transform="translate(135,119)"/>
<path d="M0 0 C1.32 0 2.64 0 4 0 C4 2.64 4 5.28 4 8 C0.8250906 9.9078584 -1.10585211 10.1609041 -4.75 9.625 C-5.54921875 9.51414063 -6.3484375 9.40328125 -7.171875 9.2890625 C-8.07679688 9.14597656 -8.07679688 9.14597656 -9 9 C-10.125 5.25 -10.125 5.25 -9 3 C-4.545 3.99 -4.545 3.99 0 5 C0 3.35 0 1.7 0 0 Z " fill="#233952" transform="translate(184,162)"/>
<path d="M0 0 C2 2 2 2 2 5 C2.66 5 3.32 5 4 5 C5.625 6.375 5.625 6.375 7 8 C7 8.66 7 9.32 7 10 C8.98 10 10.96 10 13 10 C13.33 10.66 13.66 11.32 14 12 C4.21064621 12.61719218 4.21064621 12.61719218 -0.1875 10.375 C-2.46351526 7.39263517 -2.4165657 5.66577816 -2 2 C-1.34 2 -0.68 2 0 2 C0 1.34 0 0.68 0 0 Z " fill="#203549" transform="translate(84,159)"/>
<path d="M0 0 C2 1.5 2 1.5 3 3 C3 3.66 3 4.32 3 5 C1.68 5 0.36 5 -1 5 C-1.33 5.66 -1.66 6.32 -2 7 C-4.02045442 6.39816251 -6.02111039 5.72693904 -8 5 C-8.33 4.34 -8.66 3.68 -9 3 C-9.99 2.67 -10.98 2.34 -12 2 C-12 1.34 -12 0.68 -12 0 C-8.02520182 -2.98109863 -4.29816586 -1.65173678 0 0 Z " fill="#7CBBF8" transform="translate(145,117)"/>
<path d="M0 0 C1.65 0 3.3 0 5 0 C5.0270043 1.45823212 5.04639787 2.91660675 5.0625 4.375 C5.07410156 5.18710938 5.08570313 5.99921875 5.09765625 6.8359375 C5 9 5 9 4 11 C2.02 11 0.04 11 -2 11 C-2 8.03 -2 5.06 -2 2 C-1.34 2 -0.68 2 0 2 C0 1.34 0 0.68 0 0 Z " fill="#DEDEDE" transform="translate(136,189)"/>
<path d="M0 0 C1.65 0 3.3 0 5 0 C4.67 3.63 4.34 7.26 4 11 C2.02 11 0.04 11 -2 11 C-2.05399736 9.54207116 -2.09279177 8.08357288 -2.125 6.625 C-2.15980469 5.40683594 -2.15980469 5.40683594 -2.1953125 4.1640625 C-2 2 -2 2 0 0 Z " fill="#E1E1E1" transform="translate(36,189)"/>
<path d="M0 0 C2.97 0 5.94 0 9 0 C9.33 1.65 9.66 3.3 10 5 C7.53721199 6.231394 5.7204945 6.07159196 3 6 C2.67 6.99 2.34 7.98 2 9 C3.32 9 4.64 9 6 9 C6 9.66 6 10.32 6 11 C4.35 10.67 2.7 10.34 1 10 C1 8.02 1 6.04 1 4 C-0.32 3.67 -1.64 3.34 -3 3 C-2.01 2.67 -1.02 2.34 0 2 C0 1.34 0 0.68 0 0 Z " fill="#5C6C7F" transform="translate(178,147)"/>
<path d="M0 0 C1.98 0.495 1.98 0.495 4 1 C4 1.66 4 2.32 4 3 C4.66 3 5.32 3 6 3 C7.4783226 5.95664519 7.06032783 8.74229737 7 12 C6.34 12 5.68 12 5 12 C5 12.66 5 13.32 5 14 C4.34 14 3.68 14 3 14 C2.896875 12.906875 2.79375 11.81375 2.6875 10.6875 C1.97298435 6.8550979 1.59803822 6.47994558 -1 4 C-0.6875 1.8125 -0.6875 1.8125 0 0 Z " fill="#1C3147" transform="translate(151,149)"/>
<path d="M0 0 C1.65 0 3.3 0 5 0 C7 2 7 2 7.125 4.625 C7.08375 5.40875 7.0425 6.1925 7 7 C5.35 7.33 3.7 7.66 2 8 C2 8.99 2 9.98 2 11 C1.34 11 0.68 11 0 11 C0 7.37 0 3.74 0 0 Z " fill="#E0E0E0" transform="translate(122,189)"/>
<path d="M0 0 C1.98 0.495 1.98 0.495 4 1 C4 1.66 4 2.32 4 3 C6.31 3 8.62 3 11 3 C11.33 4.32 11.66 5.64 12 7 C10.20906809 7.08086147 8.41710372 7.13912702 6.625 7.1875 C5.12839844 7.23970703 5.12839844 7.23970703 3.6015625 7.29296875 C2.74304687 7.19628906 1.88453125 7.09960938 1 7 C-1 4 -1 4 -0.625 1.8125 C-0.41875 1.214375 -0.2125 0.61625 0 0 Z " fill="#24394F" transform="translate(30,164)"/>
<path d="M0 0 C2.4375 0.8125 2.4375 0.8125 5 2 C5.33 2.99 5.66 3.98 6 5 C4.68 5.33 3.36 5.66 2 6 C2 8.97 2 11.94 2 15 C1.67 15 1.34 15 1 15 C0.67 12.03 0.34 9.06 0 6 C-3.63 6 -7.26 6 -11 6 C-10.34 5.01 -9.68 4.02 -9 3 C-5.92078868 2.74339906 -3.78863007 2.60568496 -1 4 C-0.67 2.68 -0.34 1.36 0 0 Z " fill="#667587" transform="translate(43,149)"/>
<path d="M0 0 C0.33 0 0.66 0 1 0 C1 5.94 1 11.88 1 18 C3.31 18 5.62 18 8 18 C8 18.66 8 19.32 8 20 C6.52168779 20.19412181 5.04230684 20.38012131 3.5625 20.5625 C2.73878906 20.66691406 1.91507813 20.77132812 1.06640625 20.87890625 C0.38449219 20.91886719 -0.29742187 20.95882812 -1 21 C-2 20 -2 20 -2.09765625 18.15234375 C-2.06510417 16.1015625 -2.03255208 14.05078125 -2 12 C-1.67 12 -1.34 12 -1 12 C-0.67 8.04 -0.34 4.08 0 0 Z " fill="#273E55" transform="translate(14,149)"/>
<path d="M0 0 C0.33 0 0.66 0 1 0 C1 2.31 1 4.62 1 7 C1.99 7 2.98 7 4 7 C4 4.69 4 2.38 4 0 C5.32 0 6.64 0 8 0 C8 2.97 8 5.94 8 9 C5.36 9 2.72 9 0 9 C0 6.03 0 3.06 0 0 Z " fill="#E0E0E0" transform="translate(109,188)"/>
<path d="M0 0 C0.66 1.32 1.32 2.64 2 4 C5.3 4 8.6 4 12 4 C9 7 9 7 6.73828125 7.29296875 C5.93777344 7.25816406 5.13726562 7.22335938 4.3125 7.1875 C3.10013672 7.14689453 3.10013672 7.14689453 1.86328125 7.10546875 C1.24839844 7.07066406 0.63351563 7.03585938 0 7 C0 6.34 0 5.68 0 5 C-0.61875 4.9175 -1.2375 4.835 -1.875 4.75 C-4 4 -4 4 -5.25 1.9375 C-5.62125 0.9784375 -5.62125 0.9784375 -6 0 C-3 -1 -3 -1 0 0 Z " fill="#4D5D6F" transform="translate(61,166)"/>
<path d="M0 0 C0.99 0 1.98 0 3 0 C3 0.66 3 1.32 3 2 C5.97 2.495 5.97 2.495 9 3 C9 4.65 9 6.3 9 8 C3.375 8.25 3.375 8.25 0 6 C-0.1875 2.875 -0.1875 2.875 0 0 Z " fill="#D9E1E7" transform="translate(175,159)"/>
<path d="M0 0 C0.99 0.33 1.98 0.66 3 1 C3 1.66 3 2.32 3 3 C3.99 3.33 4.98 3.66 6 4 C6 4.66 6 5.32 6 6 C4.68 5.67 3.36 5.34 2 5 C1.67 6.32 1.34 7.64 1 9 C0.67 8.01 0.34 7.02 0 6 C-0.66 6 -1.32 6 -2 6 C-2 10.62 -2 15.24 -2 20 C-3.65 20 -5.3 20 -7 20 C-5.68 19.67 -4.36 19.34 -3 19 C-3 14.05 -3 9.1 -3 4 C-1.68 4 -0.36 4 1 4 C0.67 2.68 0.34 1.36 0 0 Z " fill="#566879" transform="translate(118,152)"/>
<path d="M0 0 C1.98 0.495 1.98 0.495 4 1 C4 4.63 4 8.26 4 12 C2.68 11.67 1.36 11.34 0 11 C-0.19406478 9.35492782 -0.38007935 7.70890406 -0.5625 6.0625 C-0.66691406 5.14597656 -0.77132812 4.22945312 -0.87890625 3.28515625 C-0.91886719 2.53105469 -0.95882812 1.77695313 -1 1 C-0.67 0.67 -0.34 0.34 0 0 Z M-2 11 C-1.01 11.495 -1.01 11.495 0 12 C-0.99 12.495 -0.99 12.495 -2 13 C-2 12.34 -2 11.68 -2 11 Z " fill="#1A3048" transform="translate(45,153)"/>
<path d="M0 0 C0.33 0 0.66 0 1 0 C1 3.3 1 6.6 1 10 C-0.98 10 -2.96 10 -5 10 C-5.625 7.625 -5.625 7.625 -6 5 C-5.34 4.34 -4.68 3.68 -4 3 C-2.68 3 -1.36 3 0 3 C0 2.01 0 1.02 0 0 Z " fill="#DFDFDF" transform="translate(175,187)"/>
<path d="M0 0 C0.33 0 0.66 0 1 0 C1.04898437 0.71027344 1.09796875 1.42054688 1.1484375 2.15234375 C1.22320312 3.07144531 1.29796875 3.99054688 1.375 4.9375 C1.44460937 5.85402344 1.51421875 6.77054688 1.5859375 7.71484375 C1.72257812 8.46894531 1.85921875 9.22304687 2 10 C2.66 10.33 3.32 10.66 4 11 C4 11.66 4 12.32 4 13 C2.68 13 1.36 13 0 13 C0 14.32 0 15.64 0 17 C-4.62 17 -9.24 17 -14 17 C-14 16.67 -14 16.34 -14 16 C-9.71 16 -5.42 16 -1 16 C-1.33 14.02 -1.66 12.04 -2 10 C-1.5625 7.9375 -1.5625 7.9375 -1 6 C-1 5.113125 -1 4.22625 -1 3.3125 C-1 1 -1 1 0 0 Z " fill="#CED8E0" transform="translate(24,156)"/>
<path d="M0 0 C1.32 0.33 2.64 0.66 4 1 C5 5.75 5 5.75 5 8 C3.02 8 1.04 8 -1 8 C-1.625 5.6875 -1.625 5.6875 -2 3 C-1.34 2.01 -0.68 1.02 0 0 Z " fill="#DDDDDD" transform="translate(185,189)"/>
<path d="M0 0 C0 2.31 0 4.62 0 7 C-1.98 7 -3.96 7 -6 7 C-6 4.69 -6 2.38 -6 0 C-3.50907189 -1.24546405 -2.58919267 -0.7767578 0 0 Z " fill="#E0E0E0" transform="translate(28,190)"/>
<path d="M0 0 C2.97 0.495 2.97 0.495 6 1 C6.33 2.98 6.66 4.96 7 7 C4.69 7.33 2.38 7.66 0 8 C0 5.36 0 2.72 0 0 Z " fill="#273C53" transform="translate(111,148)"/>
<path d="M0 0 C4.07510438 -0.0247345 8.15017964 -0.04287637 12.2253418 -0.05493164 C13.61141725 -0.05995777 14.99748741 -0.06677966 16.38354492 -0.07543945 C18.37676715 -0.08758018 20.37002819 -0.09271021 22.36328125 -0.09765625 C23.56251221 -0.10289307 24.76174316 -0.10812988 25.99731445 -0.11352539 C29 0 29 0 32 1 C32.495 3.475 32.495 3.475 33 6 C31 6 31 6 29.375 4.625 C28 3 28 3 28 1 C18.76 1 9.52 1 0 1 C0 0.67 0 0.34 0 0 Z " fill="#E3F8FE" transform="translate(103,104)"/>
<path d="M0 0 C1.32 0 2.64 0 4 0 C4 2.64 4 5.28 4 8 C2.02 8 0.04 8 -2 8 C-1.125 1.125 -1.125 1.125 0 0 Z " fill="#DDDDDD" transform="translate(159,189)"/>
<path d="M0 0 C1.32 0 2.64 0 4 0 C4 1.98 4 3.96 4 6 C5.32 6.66 6.64 7.32 8 8 C4.71303767 8.79953138 3.28976808 9.09658936 0 8 C0 5.36 0 2.72 0 0 Z " fill="#193045" transform="translate(175,151)"/>
<path d="M0 0 C0.99 0 1.98 0 3 0 C3 0.66 3 1.32 3 2 C3.66 2 4.32 2 5 2 C5 3.98 5 5.96 5 8 C4.34 8 3.68 8 3 8 C3 8.99 3 9.98 3 11 C2.34 11 1.68 11 1 11 C1 8.69 1 6.38 1 4 C0.34 4 -0.32 4 -1 4 C-0.67 2.68 -0.34 1.36 0 0 Z " fill="#1A304C" transform="translate(101,154)"/>
<path d="M0 0 C0.66 0.33 1.32 0.66 2 1 C1.67 3.97 1.34 6.94 1 10 C-0.65 10.33 -2.3 10.66 -4 11 C-4 8.36 -4 5.72 -4 3 C-2.68 3.33 -1.36 3.66 0 4 C0 2.68 0 1.36 0 0 Z " fill="#B5C0C8" transform="translate(53,154)"/>
<path d="M0 0 C1.65 0.33 3.3 0.66 5 1 C4.75 4.375 4.75 4.375 4 8 C1.9375 9.4375 1.9375 9.4375 0 10 C-0.33 9.01 -0.66 8.02 -1 7 C-0.34 6.67 0.32 6.34 1 6 C0.67 5.67 0.34 5.34 0 5 C-0.04063832 3.33382885 -0.042721 1.66611905 0 0 Z " fill="#E1E1E1" transform="translate(97,189)"/>
<path d="M0 0 C0.33 0 0.66 0 1 0 C1 1.65 1 3.3 1 5 C2.65 5 4.3 5 6 5 C6 5.99 6 6.98 6 8 C3.03 8 0.06 8 -3 8 C-2.22404875 4.89619499 -1.4731994 2.74997221 0 0 Z " fill="#E9F2F6" transform="translate(64,159)"/>
<path d="M0 0 C2 0 2 0 3.625 1.375 C5 3 5 3 5 5 C5.99 5.33 6.98 5.66 8 6 C8 6.66 8 7.32 8 8 C7.01 8 6.02 8 5 8 C4.67 8.66 4.34 9.32 4 10 C1.2027092 7.93243723 0.97307727 6.85559629 0.3125 3.3125 C0.209375 2.219375 0.10625 1.12625 0 0 Z " fill="#77BCF6" transform="translate(50,3)"/>
<path d="M0 0 C0.33 0 0.66 0 1 0 C1.33 2.97 1.66 5.94 2 9 C0.68 9.33 -0.64 9.66 -2 10 C-3 9 -3 9 -3.0625 5.4375 C-3.041875 4.303125 -3.02125 3.16875 -3 2 C-2.01 2 -1.02 2 0 2 C0 1.34 0 0.68 0 0 Z " fill="#1A304B" transform="translate(57,156)"/>
<path d="M0 0 C4.49652778 -0.36458333 4.49652778 -0.36458333 6.8125 1.3125 C8 3 8 3 8 6 C6.1875 6.6875 6.1875 6.6875 4 7 C1.81974318 5.4657452 1.11209475 4.35666511 0.3125 1.8125 C0.209375 1.214375 0.10625 0.61625 0 0 Z " fill="#283D51" transform="translate(68,149)"/>
<path d="M0 0 C0.66 0 1.32 0 2 0 C2.33 0.99 2.66 1.98 3 3 C-0.2238521 5.89535533 -2.32640704 6.38781228 -6.625 6.3125 C-7.58664063 6.30863281 -8.54828125 6.30476562 -9.5390625 6.30078125 C-12 6 -12 6 -14 4 C-13.07767578 4.01740234 -13.07767578 4.01740234 -12.13671875 4.03515625 C-10.92435547 4.04869141 -10.92435547 4.04869141 -9.6875 4.0625 C-8.88699219 4.07410156 -8.08648437 4.08570313 -7.26171875 4.09765625 C-4.83138666 4.09657855 -4.83138666 4.09657855 -2 3 C-1.34 2.01 -0.68 1.02 0 0 Z " fill="#B2BEC7" transform="translate(189,167)"/>
<path d="M0 0 C0 2.31 0 4.62 0 7 C-1.65 7 -3.3 7 -5 7 C-5 5.02 -5 3.04 -5 1 C-3 0 -3 0 0 0 Z " fill="#DEDEDE" transform="translate(60,190)"/>
<path d="M0 0 C1.32 0 2.64 0 4 0 C3.67 2.97 3.34 5.94 3 9 C2.01 8.67 1.02 8.34 0 8 C0 5.36 0 2.72 0 0 Z " fill="#192F45" transform="translate(25,157)"/>
<path d="M0 0 C0.99 0.33 1.98 0.66 3 1 C3 1.66 3 2.32 3 3 C3.99 3.33 4.98 3.66 6 4 C6 4.66 6 5.32 6 6 C4.68 6.33 3.36 6.66 2 7 C1.67 8.65 1.34 10.3 1 12 C0.67 12 0.34 12 0 12 C0 8.04 0 4.08 0 0 Z " fill="#D1F2FE" transform="translate(49,12)"/>
<path d="M0 0 C0.66 0 1.32 0 2 0 C2.13833992 8.30039526 2.13833992 8.30039526 1 12 C1 12.66 1 13.32 1 14 C0.34 14 -0.32 14 -1 14 C-1 13.01 -1 12.02 -1 11 C-1.99 10.67 -2.98 10.34 -4 10 C-3.525625 9.649375 -3.05125 9.29875 -2.5625 8.9375 C-0.32126175 6.15836457 -0.32882342 3.4855283 0 0 Z " fill="#4D5C70" transform="translate(29,156)"/>
<path d="M0 0 C2.64 0.66 5.28 1.32 8 2 C8 2.66 8 3.32 8 4 C6.02 4 4.04 4 2 4 C2 4.66 2 5.32 2 6 C1.01 5.67 0.02 5.34 -1 5 C-0.67 3.35 -0.34 1.7 0 0 Z " fill="#3C4D5E" transform="translate(175,165)"/>
<path d="M0 0 C0.99 0 1.98 0 3 0 C3 2.97 3 5.94 3 9 C2.01 9 1.02 9 0 9 C0 6.03 0 3.06 0 0 Z " fill="#DFDFDF" transform="translate(76,188)"/>
<path d="M0 0 C1.32 0 2.64 0 4 0 C4 0.66 4 1.32 4 2 C3.01 2 2.02 2 1 2 C1 2.99 1 3.98 1 5 C2.32 5 3.64 5 5 5 C5 5.66 5 6.32 5 7 C3.02 7 1.04 7 -1 7 C-1.04254356 5.00045254 -1.04080783 2.99958364 -1 1 C-0.67 0.67 -0.34 0.34 0 0 Z " fill="#DCDCDC" transform="translate(86,190)"/>
<path d="M0 0 C2.97 0 5.94 0 9 0 C8.34 1.32 7.68 2.64 7 4 C5.02 4 3.04 4 1 4 C0.67 2.68 0.34 1.36 0 0 Z " fill="#283B4F" transform="translate(61,167)"/>
<path d="M0 0 C1.65 0 3.3 0 5 0 C4.34 2.31 3.68 4.62 3 7 C2.01 7 1.02 7 0 7 C0 4.69 0 2.38 0 0 Z " fill="#E2E2E2" transform="translate(146,190)"/>
<path d="M0 0 C1.32 0 2.64 0 4 0 C4 2.64 4 5.28 4 8 C2.68 8.33 1.36 8.66 0 9 C0.66 6.69 1.32 4.38 2 2 C1.34 2 0.68 2 0 2 C0 1.34 0 0.68 0 0 Z " fill="#1B324B" transform="translate(184,162)"/>
<path d="M0 0 C5.75 -0.125 5.75 -0.125 8 1 C7.67 2.32 7.34 3.64 7 5 C4.36 4.01 1.72 3.02 -1 2 C-0.67 1.34 -0.34 0.68 0 0 Z " fill="#283B51" transform="translate(180,148)"/>
<path d="M0 0 C0.33 0.99 0.66 1.98 1 3 C-1.31 4.32 -3.62 5.64 -6 7 C-6.1875 4.625 -6.1875 4.625 -6 2 C-3 0 -3 0 0 0 Z " fill="#7DBAF4" transform="translate(49,0)"/>
<path d="M0 0 C2.0625 0.4375 2.0625 0.4375 4 1 C3.67 2.98 3.34 4.96 3 7 C2.01 6.67 1.02 6.34 0 6 C-0.38218767 4.34385343 -0.71395102 2.67542976 -1 1 C-0.67 0.67 -0.34 0.34 0 0 Z " fill="#65B4F9" transform="translate(139,117)"/>
<path d="M0 0 C0.99 0.33 1.98 0.66 3 1 C3 3.64 3 6.28 3 9 C2.01 9 1.02 9 0 9 C0 6.03 0 3.06 0 0 Z " fill="#D7D7D7" transform="translate(67,188)"/>
<path d="M0 0 C0.99 0.33 1.98 0.66 3 1 C3.6875 3.25 3.6875 3.25 4 6 C2.5625 8.3125 2.5625 8.3125 1 10 C0.34 9.67 -0.32 9.34 -1 9 C-0.67 6.03 -0.34 3.06 0 0 Z " fill="#DBF4FE" transform="translate(151,124)"/>
<path d="M0 0 C0.66 0 1.32 0 2 0 C2 0.66 2 1.32 2 2 C3.98 2 5.96 2 8 2 C8.33 2.66 8.66 3.32 9 4 C6.03 4 3.06 4 0 4 C-0.33 3.34 -0.66 2.68 -1 2 C-0.67 1.34 -0.34 0.68 0 0 Z " fill="#172D43" transform="translate(89,167)"/>
<path d="M0 0 C0.33 0 0.66 0 1 0 C1 4.62 1 9.24 1 14 C-0.32 13.34 -1.64 12.68 -3 12 C-3 11.34 -3 10.68 -3 10 C-2.01 10 -1.02 10 0 10 C0 6.7 0 3.4 0 0 Z " fill="#D3D9E4" transform="translate(127,148)"/>
<path d="M0 0 C2 1.1875 2 1.1875 4 3 C4.25 5.6875 4.25 5.6875 4 8 C2.68 7.67 1.36 7.34 0 7 C0.99 7 1.98 7 3 7 C3 6.34 3 5.68 3 5 C1.68 4.67 0.36 4.34 -1 4 C-0.67 2.68 -0.34 1.36 0 0 Z " fill="#D4D4D4" transform="translate(36,192)"/>
<path d="M0 0 C2.31 0 4.62 0 7 0 C7 3 7 3 5 6 C5 4.68 5 3.36 5 2 C3.35 2 1.7 2 0 2 C0 1.34 0 0.68 0 0 Z " fill="#152D46" transform="translate(67,160)"/>
<path d="M0 0 C2.9375 0.75 2.9375 0.75 6 2 C6.875 4.125 6.875 4.125 7 6 C4.12549673 4.71142957 2.07476576 3.38598062 0 1 C0 0.67 0 0.34 0 0 Z " fill="#8AC1F5" transform="translate(55,18)"/>
<path d="M0 0 C1.98 0.495 1.98 0.495 4 1 C3.01 1.495 3.01 1.495 2 2 C2 3.32 2 4.64 2 6 C1.34 6 0.68 6 0 6 C-1.125 2.25 -1.125 2.25 0 0 Z " fill="#314457" transform="translate(151,149)"/>
</svg>
